<svg width="18" height="21" viewBox="0 0 20 25" fill="none" xmlns="http://www.w3.org/2000/svg">
<path d="M9.49713 6.52793C10.9321 7.02592 12.0183 6.77868 13.4109 6.2716C15.0277 5.68786 16.6172 5.64551 18.2002 6.35783C19.0578 6.76775 20.0932 7.4804 20.6351 8.28951C20.6351 8.33777 20.6351 8.38603 20.6351 8.43575C20.5338 8.50808 20.4345 8.57114 20.3274 8.63377C19.9857 8.84276 19.7029 9.08059 19.4165 9.36188C19.3752 9.40241 19.3338 9.44294 19.2912 9.4847C18.218 10.5804 17.8806 11.9665 17.8953 13.4575C17.9251 14.8302 18.5478 16.1066 19.514 17.0635C19.5408 17.092 19.5676 17.1205 19.5953 17.1499C20.0891 17.6704 20.7352 17.9615 21.3663 18.2821C21.249 18.6706 21.0833 19.0295 20.9062 19.394C20.8912 19.4251 20.8762 19.4562 20.8607 19.4883C20.5887 20.0484 20.2901 20.5855 19.9527 21.1092C19.9287 21.1467 19.9047 21.1841 19.88 21.2227C19.5374 21.755 19.1705 22.2663 18.7828 22.7665C18.747 22.8134 18.7112 22.8603 18.6743 22.9086C17.9533 23.8239 16.9473 24.8278 15.7313 24.9754C14.7997 25.0297 14.1115 24.765 13.2691 24.4045C12.8707 24.2366 12.4809 24.1153 12.0561 24.0339C12.0121 24.0247 11.9682 24.0155 11.9228 24.0061C10.8467 23.8645 9.82969 24.0623 8.83902 24.4726C8.71166 24.5244 8.58422 24.576 8.45668 24.6274C8.37276 24.6613 8.28897 24.6956 8.20534 24.7302C7.47802 25.0268 6.60569 25.1077 5.858 24.8264C5.81226 24.8061 5.76652 24.7859 5.71939 24.765C5.66962 24.7438 5.61986 24.7226 5.56859 24.7007C5.22028 24.5397 4.93461 24.3348 4.64702 24.0826C4.60523 24.0462 4.56345 24.0097 4.5204 23.9722C1.90208 21.6501 0.287466 17.8436 0.0251388 14.3942C-0.0977546 12.1936 0.19588 9.94098 1.66886 8.20821C1.81099 8.0502 1.95881 7.9002 2.11232 7.75333C2.14952 7.71512 2.18672 7.67692 2.22504 7.63756C3.14042 6.74347 4.32869 6.0174 5.6219 5.8523C5.66783 5.8464 5.71376 5.84049 5.76109 5.83441C7.07052 5.70102 8.27682 6.10211 9.49713 6.52793Z" fill="#2E2E2E"/>
<path d="M15.4192 0.00298378C15.4737 1.8063 14.9955 3.26569 13.7478 4.60169C12.8539 5.4776 11.6596 6.03249 10.401 6.04916C10.368 6.04854 10.3351 6.04791 10.3011 6.04726C10.0906 4.73195 10.5125 3.45745 11.2668 2.38536C12.1592 1.15736 13.3961 0.406491 14.8541 0.0206916C15.0423 -0.00567252 15.2295 -0.000736589 15.4192 0.00298378Z" fill="#2E2E2E"/>
</svg>
