<svg width="35" height="40" viewBox="0 0 35 40" fill="none" xmlns="http://www.w3.org/2000/svg">
<path d="M27.3 0.00273009C27.1233 0.00227867 26.9466 0.00168622 26.77 0.000964739C26.2936 -0.000540975 25.8173 3.26748e-05 25.3409 0.00109077C24.8403 0.00193757 24.3398 0.00115045 23.8392 0.000629931C22.9989 2.65743e-05 22.1585 0.000818305 21.3182 0.00240543C20.3493 0.00421442 19.3804 0.00362826 18.4115 0.00179823C17.5768 0.000285344 16.7421 7.87304e-05 15.9073 0.000946705C15.41 0.00146269 14.9127 0.00154051 14.4154 0.000435894C13.9477 -0.000530624 13.48 0.000152895 13.0123 0.00206301C12.8415 0.00249933 12.6708 0.00238202 12.5 0.00164323C11.2591 -0.00322671 10.1402 0.099958 9.02344 0.695072C8.96823 0.723544 8.91302 0.752016 8.85614 0.781351C8.41193 1.01683 8.02172 1.29579 7.64168 1.6249C7.54284 1.69931 7.54284 1.69931 7.44201 1.77522C6.6486 2.44455 6.07035 3.39496 5.73007 4.36765C5.68846 4.47743 5.68847 4.47743 5.64602 4.58944C5.29859 5.66073 5.35452 6.75761 5.3639 7.8722C5.366 8.16471 5.36618 8.45721 5.36657 8.74972C5.3676 9.3016 5.37032 9.85346 5.37367 10.4053C5.37741 11.0345 5.37922 11.6636 5.38088 12.2928C5.38434 13.5851 5.39017 14.8774 5.39761 16.1698C5.4944 16.1636 5.59118 16.1574 5.6909 16.1511C5.81927 16.1432 5.94764 16.1353 6.07601 16.1274C6.13964 16.1233 6.20327 16.1192 6.26882 16.115C6.72988 16.0869 7.17687 16.086 7.63648 16.1386C7.70529 16.1462 7.7741 16.1538 7.845 16.1616C10.2269 16.4558 12.4503 17.7079 13.9583 19.5774C15.5696 21.7092 16.1624 24.1968 15.8316 26.856C15.7771 27.1525 15.7075 27.434 15.6206 27.7225C15.6045 27.7773 15.5884 27.8321 15.5719 27.8886C15.1831 29.1856 14.5513 30.5288 13.5353 31.4547C13.2916 31.8496 13.3354 32.225 13.344 32.6798C13.3445 32.7733 13.345 32.8668 13.3455 32.9631C13.3473 33.2612 13.3515 33.5593 13.3557 33.8574C13.3574 34.0597 13.3589 34.262 13.3603 34.4643C13.3639 34.9598 13.3695 35.4553 13.3765 35.9508C15.4031 35.9586 17.4297 35.9644 19.4563 35.968C20.3974 35.9697 21.3385 35.972 22.2795 35.9759C23.1002 35.9792 23.9209 35.9813 24.7416 35.9821C25.1757 35.9825 25.6099 35.9835 26.044 35.9859C26.4535 35.9882 26.863 35.9889 27.2725 35.9884C27.422 35.9885 27.5714 35.9891 27.7209 35.9904C28.8983 36 29.9699 35.8652 31.0277 35.3015C31.0829 35.273 31.1382 35.2445 31.195 35.2152C31.6392 34.9797 32.0294 34.7007 32.4095 34.3716C32.4754 34.322 32.5413 34.2724 32.6092 34.2213C33.4023 33.5522 33.9813 32.6015 34.3211 31.6289C34.3487 31.5553 34.3763 31.4817 34.4048 31.4058C34.7463 30.3457 34.7011 29.2648 34.697 28.1618C34.6963 27.8613 34.6974 27.5608 34.6983 27.2603C34.6998 26.6732 34.6995 26.0861 34.6985 25.499C34.6978 25.0215 34.6977 24.544 34.698 24.0664C34.6981 23.9982 34.6981 23.93 34.6982 23.8597C34.6983 23.7211 34.6984 23.5825 34.6985 23.4439C34.6995 22.147 34.6984 20.8502 34.6966 19.5533C34.6951 18.4428 34.6954 17.3324 34.6969 16.2219C34.6987 14.9294 34.6994 13.6368 34.6984 12.3443C34.6983 12.2062 34.6981 12.0682 34.698 11.9301C34.698 11.8622 34.6979 11.7943 34.6979 11.7243C34.6976 11.2478 34.6981 10.7714 34.6989 10.295C34.6998 9.71358 34.6995 9.13223 34.6978 8.55085C34.6969 8.25476 34.6966 7.9587 34.6977 7.66261C34.7026 6.23843 34.6887 4.95582 34.0042 3.67157C33.9757 3.6163 33.9472 3.56103 33.9178 3.50409C33.6822 3.06 33.405 2.66868 33.0744 2.28981C32.9781 2.16912 32.9781 2.16912 32.8799 2.04599C31.4846 0.374412 29.3504 -0.00614095 27.3 0.00273009ZM29.0018 7.1987C29.2867 7.61707 29.3058 7.93978 29.2512 8.44021C29.056 8.84551 28.8117 9.05553 28.42 9.27135C28.067 9.36702 27.7169 9.36656 27.3537 9.36613C27.2887 9.36638 27.2237 9.36663 27.1568 9.36688C26.9393 9.3676 26.7218 9.36773 26.5043 9.36785C26.3482 9.36824 26.1922 9.36865 26.0361 9.3691C25.6123 9.37019 25.1885 9.37073 24.7646 9.3711C24.4997 9.37134 24.2348 9.37168 23.9699 9.37205C23.1407 9.37319 22.3115 9.37399 21.4823 9.37431C20.5258 9.37469 19.5693 9.37614 18.6128 9.37855C17.873 9.38035 17.1332 9.38119 16.3933 9.3813C15.9517 9.38139 15.51 9.38188 15.0684 9.38336C14.6528 9.38473 14.2372 9.38491 13.8216 9.38418C13.6694 9.38412 13.5172 9.38448 13.365 9.3853C12.1922 9.44562 12.1922 9.44562 11.1661 8.98444C10.8248 8.59314 10.7704 8.32339 10.7769 7.82011C10.8111 7.50729 10.9232 7.34162 11.1324 7.11039C11.6404 6.71049 12.0693 6.6824 12.6975 6.68315C12.7624 6.68291 12.8274 6.68266 12.8944 6.68241C13.1119 6.68169 13.3294 6.68156 13.5469 6.68143C13.7029 6.68105 13.859 6.68063 14.0151 6.68018C14.4389 6.67909 14.8627 6.67856 15.2865 6.67819C15.5514 6.67794 15.8164 6.6776 16.0813 6.67723C16.9104 6.6761 17.7396 6.67529 18.5688 6.67497C19.5254 6.6746 20.4819 6.67314 21.4384 6.67073C22.1782 6.66894 22.918 6.6681 23.6578 6.66799C24.0995 6.6679 24.5411 6.66741 24.9828 6.66592C25.3984 6.66455 25.8139 6.66438 26.2295 6.6651C26.3817 6.66517 26.534 6.66481 26.6862 6.66399C27.9545 6.6024 27.9545 6.6024 29.0018 7.1987ZM29.0018 13.8478C29.2867 14.2661 29.3058 14.5889 29.2512 15.0893C29.056 15.4946 28.8117 15.7046 28.42 15.9204C28.1213 15.9967 27.8412 16.0143 27.5336 16.0152C27.4397 16.0157 27.3458 16.0162 27.249 16.0166C27.1468 16.0167 27.0445 16.0168 26.9392 16.0169C26.8309 16.0173 26.7226 16.0178 26.611 16.0182C26.3144 16.0193 26.0178 16.0198 25.7213 16.0202C25.5357 16.0204 25.3502 16.0208 25.1646 16.0211C24.5833 16.0223 24.002 16.0231 23.4207 16.0234C22.7511 16.0238 22.0815 16.0252 21.4119 16.0276C20.8933 16.0294 20.3748 16.0303 19.8563 16.0304C19.547 16.0305 19.2378 16.031 18.9285 16.0324C18.5832 16.0341 18.2378 16.0337 17.8925 16.0332C17.7909 16.0339 17.6893 16.0347 17.5847 16.0355C16.8927 16.0321 16.2545 16.0018 15.7452 15.4893C15.5107 15.1789 15.4214 14.896 15.4543 14.5075C15.5861 14.0757 15.762 13.788 16.1193 13.5101C16.703 13.3152 17.2666 13.3198 17.8778 13.3211C17.9861 13.3207 18.0944 13.3202 18.206 13.3198C18.5016 13.3187 18.7971 13.3186 19.0927 13.3188C19.3401 13.3189 19.5875 13.3185 19.8349 13.3181C20.419 13.3172 21.003 13.3172 21.5871 13.3177C22.1881 13.3182 22.7891 13.3171 23.3901 13.3154C23.9076 13.3139 24.425 13.3134 24.9425 13.3137C25.2509 13.3138 25.5593 13.3136 25.8678 13.3125C26.2119 13.3112 26.556 13.312 26.9001 13.313C27.0013 13.3123 27.1025 13.3117 27.2067 13.311C27.8587 13.3151 28.5481 13.3197 29.0018 13.8478ZM29.0018 20.4969C29.2867 20.9152 29.3058 21.2379 29.2512 21.7384C29.056 22.1437 28.8117 22.3537 28.42 22.5695C28.0525 22.6706 27.6838 22.6655 27.3054 22.666C27.236 22.6664 27.1666 22.6668 27.0951 22.6673C26.8662 22.6685 26.6373 22.669 26.4084 22.6695C26.2487 22.67 26.089 22.6705 25.9292 22.6709C25.5944 22.6718 25.2597 22.6723 24.9249 22.6726C24.4972 22.673 24.0695 22.675 23.6419 22.6774C23.3119 22.679 22.9819 22.6794 22.6519 22.6795C22.4943 22.6798 22.3367 22.6804 22.1791 22.6815C21.958 22.6829 21.7369 22.6828 21.5157 22.6822C21.4514 22.683 21.3872 22.6838 21.3209 22.6846C20.8289 22.6808 20.2746 22.6193 19.8899 22.2855C19.5854 21.9329 19.4962 21.6302 19.5039 21.167C19.5596 20.7398 19.7761 20.4759 20.1035 20.2112C20.5484 19.9751 20.9775 19.9803 21.4727 19.9796C21.5421 19.9792 21.6115 19.9788 21.6829 19.9783C21.9118 19.9771 22.1407 19.9766 22.3696 19.9761C22.5294 19.9756 22.6891 19.9751 22.8488 19.9747C23.1836 19.9738 23.5184 19.9733 23.8532 19.973C24.2809 19.9726 24.7085 19.9706 25.1362 19.9682C25.4662 19.9666 25.7962 19.9662 26.1262 19.9661C26.2838 19.9658 26.4414 19.9652 26.599 19.9641C26.8201 19.9627 27.0412 19.9628 27.2624 19.9634C27.3267 19.9626 27.3909 19.9618 27.4571 19.961C28.0222 19.9653 28.6194 20.0463 29.0018 20.4969ZM28.885 27.0121C29.2264 27.4032 29.2808 27.6732 29.2742 28.1764C29.2401 28.4892 29.1279 28.6549 28.9187 28.8861C28.4058 29.2899 27.9701 29.3141 27.3359 29.3151C27.2698 29.3155 27.2036 29.3159 27.1355 29.3163C26.9174 29.3175 26.6993 29.3181 26.4812 29.3186C26.3289 29.3191 26.1766 29.3195 26.0243 29.32C25.7052 29.3209 25.386 29.3214 25.0669 29.3217C24.6594 29.3221 24.2518 29.3241 23.8443 29.3265C23.5297 29.328 23.2151 29.3285 22.9005 29.3286C22.7503 29.3288 22.6002 29.3295 22.45 29.3306C21.2638 29.3952 21.2638 29.3952 20.2255 28.9317C19.8841 28.5405 19.8298 28.2706 19.8363 27.7673C19.8705 27.4545 19.9826 27.2889 20.1918 27.0576C20.7047 26.6539 21.1404 26.6296 21.7746 26.6287C21.8408 26.6283 21.9069 26.6278 21.9751 26.6274C22.1932 26.6262 22.4113 26.6256 22.6294 26.6252C22.7817 26.6247 22.9339 26.6242 23.0862 26.6237C23.4054 26.6229 23.7245 26.6224 24.0436 26.6221C24.4512 26.6216 24.8587 26.6196 25.2662 26.6173C25.5808 26.6157 25.8954 26.6153 26.21 26.6152C26.3602 26.6149 26.5104 26.6143 26.6605 26.6132C27.8467 26.5485 27.8467 26.5485 28.885 27.0121Z" fill="white"/>
<path d="M2.64438 19.9669C2.53603 20.0575 2.42873 20.1494 2.32231 20.2423C2.24185 20.3064 2.16139 20.3706 2.07849 20.4367C1.28056 21.1028 0.778196 22.03 0.410704 22.985C0.374598 23.0775 0.338492 23.1699 0.301293 23.2652C-0.240448 24.9282 -0.0252105 26.7855 0.727574 28.3354C0.985919 28.8414 1.28489 29.287 1.65741 29.7172C1.70701 29.7831 1.75662 29.849 1.80772 29.9169C2.48926 30.7247 3.42441 31.2586 4.40015 31.6288C4.4925 31.6648 4.58486 31.7008 4.68001 31.7379C6.34238 32.2807 8.20116 32.0646 9.75058 31.3119C10.2563 31.0534 10.7036 30.7562 11.1323 30.3821C11.2128 30.3179 11.2933 30.2537 11.3762 30.1876C12.1741 29.5216 12.6765 28.5943 13.044 27.6394C13.0981 27.5007 13.0981 27.5007 13.1534 27.3592C13.6951 25.6963 13.4799 23.8387 12.7271 22.2889C12.4686 21.7832 12.1714 21.3359 11.7973 20.9072C11.701 20.7865 11.701 20.7865 11.6028 20.6633C10.9367 19.8654 10.0095 19.363 9.05451 18.9956C8.96204 18.9594 8.86958 18.9233 8.77432 18.8861C6.72272 18.2178 4.34529 18.6599 2.64438 19.9669Z" fill="white"/>
<path d="M10.7164 33.7068C10.5838 33.7464 10.4512 33.7861 10.3186 33.8258C10.2448 33.8478 10.171 33.8699 10.0949 33.8927C9.84572 33.9681 9.59806 34.0479 9.35019 34.1275C7.22556 34.7771 5.12704 34.5649 3.0761 33.7678C2.9037 33.7068 2.9037 33.7068 2.73747 33.7068C2.72976 34.4026 2.72386 35.0983 2.72025 35.7941C2.71852 36.1172 2.71617 36.4403 2.71239 36.7634C2.70877 37.0754 2.70679 37.3874 2.70593 37.6995C2.70532 37.8183 2.70412 37.9371 2.70232 38.0559C2.6999 38.2228 2.69977 38.3897 2.69973 38.5566C2.69899 38.6515 2.69825 38.7464 2.69749 38.8441C2.76068 39.263 2.97635 39.5189 3.27771 39.8052C3.72576 40.0133 4.08195 40.0487 4.56597 39.9403C5.12948 39.6818 5.63294 39.3005 6.13214 38.9371C6.19642 38.891 6.26071 38.845 6.32694 38.7975C6.37954 38.7568 6.43215 38.7161 6.48635 38.6741C6.64828 38.5889 6.64828 38.5889 6.83653 38.674C7.05863 38.7764 7.25381 38.8917 7.45773 39.0264C7.53064 39.0742 7.60355 39.122 7.67867 39.1713C7.75372 39.2211 7.82877 39.2709 7.90609 39.3221C8.05615 39.421 8.20625 39.5198 8.3564 39.6186C8.42252 39.6623 8.48865 39.7061 8.55678 39.7512C8.97289 40.0187 9.40191 39.9852 9.88523 39.9403C10.2989 39.7482 10.492 39.5006 10.7164 39.1092C10.7563 38.8441 10.7563 38.8441 10.7541 38.5566C10.7541 38.4485 10.7541 38.3404 10.754 38.229C10.7523 38.1122 10.7506 37.9955 10.7488 37.8787C10.7482 37.7583 10.7477 37.6379 10.7474 37.5175C10.7461 37.2018 10.7429 36.8862 10.7392 36.5706C10.7358 36.248 10.7343 35.9254 10.7326 35.6028C10.729 34.9708 10.7234 34.3388 10.7164 33.7068Z" fill="white"/>
</svg>
