<svg width="40" height="40" viewBox="0 0 40 40" fill="none" xmlns="http://www.w3.org/2000/svg">
<g clip-path="url(#clip0_178_931)">
<path d="M10.2834 16.1671C9.81496 16.4303 9.54306 16.8403 9.37523 17.3438C9.2907 18.0179 9.43614 18.461 9.73869 19.0589C9.92738 19.4855 9.90581 19.8146 9.76097 20.2491C9.50458 20.6213 9.20546 20.9317 8.75023 21.0157C8.57919 21.0193 8.40803 21.0183 8.237 21.0144C8.13162 21.0123 8.02625 21.0104 7.92088 21.0084C7.8375 21.0067 7.8375 21.0067 7.75244 21.005C7.39464 20.9987 7.03679 20.9978 6.67895 20.996C6.365 20.9941 6.05131 20.9903 5.73745 20.9822C5.43307 20.9745 5.12905 20.9721 4.82457 20.9734C4.70906 20.9729 4.59354 20.9705 4.47811 20.9661C4.11044 20.9527 3.78706 20.9617 3.43773 21.0938C3.14264 21.4249 2.97159 21.7768 2.81273 22.1876C2.79262 22.2384 2.77252 22.2892 2.75181 22.3416C1.96411 24.3656 1.96607 26.5305 2.82615 28.527C3.65629 30.3865 5.11887 31.9038 7.03148 32.6563C7.82846 32.9358 8.60493 33.1397 9.45335 33.1251C9.44046 33.1944 9.42757 33.2636 9.41429 33.335C9.20841 34.8489 9.56768 36.3273 10.4418 37.5773C11.4287 38.8433 12.767 39.7479 14.3752 40.0001C16.0135 40.128 17.3213 39.8737 18.7233 39.0134C18.9308 38.8036 18.9521 38.6879 18.9551 38.3976C18.9537 38.341 18.9523 38.2845 18.9508 38.2262C18.9509 38.1659 18.9509 38.1057 18.951 38.0436C18.9507 37.8449 18.9477 37.6463 18.9446 37.4476C18.9439 37.3097 18.9433 37.1717 18.9429 37.0338C18.9415 36.6711 18.9376 36.3084 18.9333 35.9457C18.9293 35.5755 18.9275 35.2052 18.9255 34.835C18.9214 34.1087 18.9147 33.3825 18.9065 32.6563C18.8594 32.6617 18.8123 32.667 18.7638 32.6726C18.7014 32.6796 18.639 32.6866 18.5748 32.6939C18.5132 32.7008 18.4516 32.7078 18.3882 32.715C17.3578 32.8235 16.3022 32.5811 15.469 31.9532C15.4081 31.9074 15.3473 31.8615 15.2847 31.8143C14.4174 31.1028 13.9544 30.1305 13.8381 29.0235C13.7775 27.7861 14.176 26.7759 15.0002 25.8594C16.1973 24.7753 17.2951 24.7657 18.9065 24.7657C18.9065 23.554 18.9065 22.3423 18.9065 21.0938C18.5246 21.0918 18.1427 21.0898 17.7492 21.0877C17.5064 21.0857 17.2636 21.0837 17.0208 21.0813C16.6359 21.0775 16.251 21.0741 15.8661 21.0726C15.5556 21.0715 15.2451 21.0688 14.9346 21.065C14.8165 21.0639 14.6984 21.0633 14.5803 21.0632C13.5827 21.0663 13.5827 21.0663 12.7444 20.5662C12.4707 20.1262 12.4023 19.7297 12.5002 19.2188C12.61 18.9535 12.7354 18.6997 12.8634 18.4428C13.0747 17.9632 13.0142 17.5861 12.8518 17.0997C12.6451 16.6274 12.3065 16.305 11.8441 16.0813C11.3273 15.9145 10.7788 15.9497 10.2834 16.1671Z" fill="white"/>
<path d="M36.4104 21.0845C36.3439 21.0846 36.2775 21.0848 36.209 21.085C36.0964 21.085 36.0964 21.085 35.9815 21.085C35.8591 21.0856 35.8591 21.0856 35.7342 21.0862C35.651 21.0863 35.5679 21.0865 35.4823 21.0866C35.2156 21.087 34.9489 21.088 34.6822 21.089C34.5019 21.0894 34.3216 21.0897 34.1413 21.0901C33.6982 21.0909 33.2552 21.0922 32.8121 21.0939C32.8128 21.1431 32.8135 21.1924 32.8142 21.2432C32.817 21.4688 32.8187 21.6944 32.8204 21.92C32.8215 21.9975 32.8226 22.075 32.8237 22.1549C32.827 22.7493 32.7608 23.2097 32.4996 23.7501C32.4722 23.811 32.4448 23.872 32.4166 23.9347C31.9043 24.9647 31.0689 25.5473 30.0249 25.9562C28.9821 26.298 27.9069 26.0976 26.9381 25.6446C26.0118 25.1529 25.3466 24.3582 24.9996 23.3595C24.9714 23.2559 24.945 23.1518 24.9215 23.047C24.8949 22.9382 24.8949 22.9382 24.8678 22.8273C24.81 22.2376 24.8377 21.6804 24.9215 21.0939C23.684 21.0939 22.4465 21.0939 21.1715 21.0939C21.1677 21.441 21.1638 21.7881 21.1599 22.1458C21.1564 22.4242 21.1528 22.7025 21.149 22.9809C21.1452 23.2739 21.1415 23.5669 21.1385 23.8598C21.1356 24.1425 21.132 24.4252 21.1279 24.7078C21.1265 24.8152 21.1253 24.9225 21.1244 25.0299C21.1321 26.0198 21.1321 26.0198 20.8102 26.9386C20.4841 27.2389 20.1624 27.402 19.7213 27.4562C19.3247 27.4057 19.0109 27.2443 18.6617 27.0558C18.201 26.8603 17.6322 26.8745 17.1554 27.0045C16.6435 27.2329 16.3012 27.6322 16.0982 28.1495C15.9578 28.6365 16.0139 29.0865 16.191 29.5558C16.4994 30.0294 16.8938 30.3296 17.4215 30.5275C18.0284 30.6033 18.4575 30.4708 18.984 30.1857C19.3277 30.0281 19.6461 29.9479 20.014 30.0453C20.1684 30.1031 20.3179 30.1671 20.4684 30.2345C20.5457 30.2603 20.6231 30.2861 20.7027 30.3126C20.7906 30.4558 20.7906 30.4558 20.859 30.6251C20.8864 30.6735 20.9138 30.7218 20.942 30.7716C21.1331 31.2048 21.1012 31.6749 21.0933 32.1381C21.0915 32.2877 21.0898 32.4373 21.0881 32.5869C21.0871 32.6658 21.0861 32.7446 21.0851 32.8258C21.0795 33.3326 21.0791 33.8393 21.0777 34.3461C21.0763 34.791 21.073 35.2358 21.0658 35.6806C21.0589 36.1118 21.057 36.5427 21.0585 36.974C21.0581 37.1379 21.056 37.3018 21.052 37.4656C21.0232 38.7132 21.0232 38.7132 21.2711 39.0361C21.5425 39.2766 21.8472 39.4077 22.1871 39.5314C22.2484 39.5578 22.3098 39.5842 22.3729 39.6114C22.5289 39.6751 22.5289 39.6751 22.8121 39.7609C22.9547 39.8054 22.9547 39.8054 23.1002 39.8509C24.6865 40.2867 26.3287 40.0066 27.755 39.2341C29.0811 38.4769 29.9932 37.1961 30.4244 35.7472C30.6491 34.8624 30.7144 33.9497 30.5465 33.047C30.6364 33.0497 30.7264 33.0524 30.819 33.0552C31.1643 33.0549 31.477 32.9979 31.8111 32.9152C31.8688 32.9011 31.9264 32.887 31.9858 32.8725C33.9885 32.3654 35.6478 31.1469 36.7184 29.3751C37.8548 27.3972 38.0799 25.2268 37.5146 23.0366C37.3882 22.6153 36.9183 21.1159 36.4104 21.0845Z" fill="white"/>
<path d="M11.9533 0.937511C11.6098 1.19318 11.3123 1.48922 11.0158 1.79689C10.9581 1.85298 10.9005 1.90907 10.8412 1.96687C9.76807 3.07118 9.35574 4.5952 9.3672 6.09986C9.37724 6.38893 9.40929 6.66738 9.45325 6.95314C9.36383 6.95062 9.2744 6.9481 9.18226 6.94551C7.36738 6.9483 5.65541 7.94213 4.40447 9.18672C2.93933 10.6888 2.16536 12.7371 2.16837 14.8237C2.19018 16.3097 2.64992 17.5272 3.35951 18.8281C4.62279 18.8281 5.88607 18.8281 7.18763 18.8281C7.18763 18.2867 7.18763 17.7453 7.18763 17.1875C7.42481 16.1154 7.90923 15.14 8.84138 14.5239C9.85724 13.8978 10.8948 13.653 12.0753 13.8822C12.6351 14.0399 13.1201 14.2734 13.5939 14.6094C13.6484 14.6477 13.7028 14.6859 13.759 14.7254C14.4248 15.2477 14.8829 16.0567 15.0783 16.875C15.096 16.9475 15.1137 17.02 15.132 17.0947C15.1898 17.6844 15.162 18.2416 15.0783 18.8281C16.3415 18.8281 17.6048 18.8281 18.9064 18.8281C18.9075 18.4463 18.9086 18.0644 18.9097 17.6709C18.9113 17.4281 18.913 17.1853 18.9151 16.9425C18.9184 16.5576 18.9213 16.1727 18.9217 15.7878C18.922 15.4772 18.9242 15.1668 18.9277 14.8562C18.9287 14.7381 18.9291 14.62 18.9287 14.5019C18.9195 13.6675 18.9195 13.6675 19.2625 12.9247C19.5602 12.6281 19.8808 12.5202 20.2882 12.4512C20.6007 12.4646 20.8324 12.5944 21.1085 12.7344C21.6856 13.0169 22.2172 13.0919 22.8425 12.9166C23.2961 12.7191 23.6111 12.3824 23.8337 11.9452C24.0455 11.4053 24.0117 10.9041 23.8087 10.3662C23.4571 9.82619 23.0479 9.51291 22.422 9.37501C21.8801 9.32575 21.4808 9.48699 21.0109 9.73634C20.6181 9.92018 20.2949 9.95707 19.8781 9.84376C19.453 9.68753 19.1848 9.38489 18.9845 8.98439C18.979 8.74171 18.9782 8.50079 18.9809 8.25816C18.9819 8.10197 18.9828 7.94577 18.9838 7.78957C18.9844 7.70647 18.985 7.62336 18.9857 7.53774C18.9889 7.0065 18.988 6.47526 18.988 5.94402C18.9882 5.47678 18.9899 5.00963 18.9944 4.54242C18.9987 4.09086 18.9992 3.63943 18.9972 3.18786C18.9971 3.01583 18.9984 2.84379 19.0011 2.67177C19.0211 1.32429 19.0211 1.32429 18.7372 0.947232C18.5356 0.802528 18.3573 0.710192 18.1251 0.625011C18.0718 0.598852 18.0185 0.572693 17.9636 0.545741C17.8241 0.477913 17.6792 0.42169 17.5343 0.366222C17.4408 0.329463 17.3472 0.292705 17.2508 0.254832C15.4988 -0.353914 13.5005 -0.0615152 11.9533 0.937511Z" fill="white"/>
<path d="M21.4843 0.859352C21.4287 0.888503 21.3731 0.917654 21.3158 0.947688C21.1353 1.1307 21.135 1.26352 21.1329 1.51456C21.1346 1.59987 21.1346 1.59987 21.1363 1.68689C21.1363 1.74713 21.1362 1.80736 21.1362 1.86941C21.1364 2.06855 21.1388 2.26759 21.1413 2.46671C21.1419 2.60475 21.1423 2.74279 21.1426 2.88083C21.1438 3.2442 21.1469 3.60752 21.1503 3.97087C21.1535 4.34162 21.155 4.71238 21.1565 5.08314C21.1599 5.81064 21.1652 6.53812 21.1718 7.2656C21.3285 7.24568 21.4851 7.22577 21.6418 7.20585C22.684 7.08233 23.7516 7.36515 24.5946 7.99314C25.5181 8.76989 26.0348 9.73065 26.1718 10.9375C26.2029 12.1245 25.8289 13.0824 25.078 13.9844C24.4511 14.6113 23.7323 14.9157 22.8905 15.1562C22.3234 15.1562 21.7562 15.1562 21.1718 15.1562C21.1718 16.3679 21.1718 17.5797 21.1718 18.8281C21.548 18.8301 21.9243 18.8321 22.3119 18.8342C22.5512 18.8362 22.7904 18.8382 23.0297 18.8406C23.4089 18.8444 23.7882 18.8478 24.1674 18.8493C24.4734 18.8505 24.7793 18.8532 25.0853 18.8569C25.2016 18.858 25.318 18.8587 25.4344 18.8587C26.4242 18.8574 26.4242 18.8574 27.2558 19.3558C27.5286 19.7944 27.5911 20.1934 27.4999 20.7031C27.4151 20.9183 27.3181 21.1131 27.2024 21.3131C26.9796 21.7229 26.9692 22.1698 27.0791 22.6169C27.2848 23.2124 27.6294 23.5765 28.1884 23.8623C28.8292 23.9754 29.3754 23.9742 29.9218 23.5937C30.3268 23.2624 30.5729 22.8843 30.6606 22.3678C30.6947 21.7729 30.5202 21.3278 30.2587 20.8066C30.1236 20.4645 30.1038 20.178 30.2081 19.8236C30.4094 19.4324 30.64 19.089 31.076 18.9356C31.3084 18.8964 31.5312 18.8984 31.7669 18.9001C31.873 18.9006 31.9791 18.901 32.0853 18.9015C32.1412 18.9019 32.1972 18.9022 32.2549 18.9026C32.5522 18.9041 32.8495 18.9029 33.1467 18.9021C33.5246 18.9012 33.9025 18.901 34.2804 18.9043C34.5862 18.907 34.892 18.9065 35.1978 18.9041C35.3141 18.9037 35.4305 18.9044 35.5468 18.9063C36.457 18.92 36.457 18.92 36.7181 18.6924C36.8205 18.5314 36.889 18.3824 36.953 18.2031C36.9958 18.1232 37.0386 18.0434 37.0827 17.9611C37.9699 16.0856 38.0647 13.9798 37.4023 12.0166C36.6383 10.0353 35.3256 8.42884 33.3837 7.50974C32.4674 7.12558 31.5482 6.83719 30.5468 6.87498C30.5593 6.80791 30.5718 6.74083 30.5846 6.67173C30.8035 5.22951 30.462 3.72272 29.6337 2.52439C27.617 -0.0717569 24.3622 -0.777011 21.4843 0.859352Z" fill="white"/>
</g>
<defs>
<clipPath id="clip0_178_931">
<rect width="40" height="40" fill="white" transform="matrix(-1 0 0 1 40 0)"/>
</clipPath>
</defs>
</svg>
