<svg width="48" height="47" viewBox="0 0 48 47" fill="none" xmlns="http://www.w3.org/2000/svg">
<path d="M22.2275 28.125C25.5469 28.125 28.8662 28.125 32.2861 28.125C32.3058 32.0775 32.3058 32.0775 32.31 33.7357C32.3129 34.8799 32.3163 36.0242 32.323 37.1684C32.3278 38.0018 32.331 38.8352 32.3321 39.6686C32.3327 40.1097 32.3342 40.5507 32.3378 40.9918C32.3411 41.4075 32.3421 41.8231 32.3414 42.2388C32.3415 42.3908 32.3425 42.5429 32.3443 42.6949C32.3556 43.6512 32.29 44.4438 31.6458 45.1974C29.3687 47.3712 25.3756 45.8984 22.2275 45.8984C22.2275 40.0332 22.2275 34.168 22.2275 28.125Z" fill="white"/>
<path d="M5.62628 28.125C8.30109 28.125 10.9759 28.125 13.7318 28.125C13.7318 33.9902 13.7318 39.8555 13.7318 45.8984C7.00702 45.8984 7.00702 45.8984 6.258 45.19C5.75804 44.5957 5.61395 43.964 5.61454 43.2038C5.61446 43.1393 5.61437 43.0747 5.61429 43.0082C5.61413 42.7921 5.61466 42.5761 5.6152 42.36C5.61522 42.2051 5.61521 42.0501 5.61515 41.8951C5.61513 41.4745 5.6157 41.0538 5.61638 40.6332C5.61699 40.1936 5.61705 39.754 5.61717 39.3143C5.61747 38.4819 5.61827 37.6494 5.61925 36.8169C5.62055 35.692 5.62107 34.5671 5.62164 33.4422C5.62256 31.6698 5.62451 29.8974 5.62628 28.125Z" fill="white"/>
<path d="M14.8057 28.125C16.9004 28.125 18.9951 28.125 21.1533 28.125C21.1533 33.9902 21.1533 39.8555 21.1533 45.8984C19.0586 45.8984 16.9639 45.8984 14.8057 45.8984C14.8057 40.0332 14.8057 34.168 14.8057 28.125Z" fill="white"/>
<path d="M8.55863 17.685C8.82503 17.8077 8.90393 17.9595 9.05449 18.2099C9.11138 18.303 9.16827 18.396 9.22689 18.4918C9.28732 18.5932 9.34776 18.6945 9.41002 18.7989C9.53968 19.0119 9.66952 19.2248 9.7995 19.4375C9.83301 19.4927 9.86652 19.5478 9.90104 19.6046C10.1479 20.0101 10.4016 20.4107 10.6593 20.8093C10.6954 20.8651 10.7315 20.921 10.7687 20.9786C10.9443 21.2501 11.1204 21.5212 11.2969 21.7921C11.3599 21.8898 11.4229 21.9874 11.4879 22.088C11.544 22.1743 11.6002 22.2606 11.658 22.3496C11.7782 22.5587 11.7782 22.5587 11.7782 22.754C11.6018 22.8859 11.6018 22.8859 11.3513 23.0386C11.2581 23.096 11.165 23.1534 11.069 23.2126C10.9667 23.2747 10.8643 23.3369 10.7589 23.401C10.5425 23.5342 10.3262 23.6676 10.11 23.8011C10.0262 23.8527 10.0262 23.8527 9.94075 23.9054C9.35663 24.2655 8.7788 24.6352 8.20152 25.0062C7.99719 25.1373 7.79285 25.2684 7.5885 25.3995C7.48907 25.4633 7.38963 25.5271 7.28719 25.5929C6.73871 25.9443 6.18899 26.2938 5.63919 26.6432C5.17466 26.9384 4.71047 27.2342 4.24683 27.5308C4.14872 27.5935 4.05062 27.6561 3.94954 27.7207C3.76127 27.841 3.57309 27.9614 3.38502 28.082C3.30044 28.136 3.21587 28.19 3.12874 28.2456C3.05445 28.2932 2.98016 28.3408 2.90362 28.3897C2.70843 28.5083 2.5113 28.6123 2.30553 28.711C1.79384 27.9971 1.31716 27.2654 0.85289 26.5199C0.786927 26.415 0.720963 26.31 0.653 26.2019C0.590309 26.1015 0.527619 26.0011 0.463028 25.8977C0.406522 25.8073 0.350015 25.7168 0.291796 25.6236C-0.07306 24.9928 -0.0544755 24.0817 0.122757 23.3834C0.500597 22.5535 1.37408 22.0927 2.11632 21.631C2.30872 21.5099 2.5011 21.3889 2.69348 21.2678C2.79131 21.2065 2.88914 21.1452 2.98993 21.082C3.44675 20.7951 3.90147 20.505 4.35631 20.2149C4.53355 20.1021 4.71081 19.9894 4.88808 19.8766C5.26401 19.6374 5.63987 19.398 6.0157 19.1587C6.11188 19.0974 6.20805 19.0362 6.30714 18.9731C6.49001 18.8566 6.67287 18.7402 6.8557 18.6236C7.01997 18.5191 7.18447 18.4148 7.34922 18.311C7.50105 18.214 7.65147 18.1147 7.80031 18.0132C7.86851 17.9674 7.93671 17.9217 8.00697 17.8746C8.06603 17.8339 8.12509 17.7931 8.18593 17.7511C8.36022 17.6759 8.36022 17.6759 8.55863 17.685Z" fill="white"/>
<path d="M25.8408 8.39848C26.3573 8.90394 26.7423 9.48729 27.1165 10.1014C27.2131 10.258 27.3099 10.4145 27.4068 10.571C27.4536 10.6475 27.5004 10.724 27.5487 10.8028C27.7478 11.1164 27.9644 11.417 28.184 11.7165C28.2822 11.9141 28.2822 11.9141 28.2743 12.1167C28.1541 12.3685 28.0179 12.4483 27.7806 12.5939C27.6523 12.6739 27.6523 12.6739 27.5214 12.7556C27.428 12.8123 27.3347 12.8689 27.2385 12.9273C27.0408 13.0501 26.843 13.1729 26.6453 13.2958C26.5438 13.3583 26.4423 13.4209 26.3377 13.4853C25.8762 13.7709 25.4192 14.0633 24.9619 14.3555C24.7829 14.4695 24.6039 14.5834 24.4248 14.6973C24.3362 14.7537 24.2476 14.8101 24.1562 14.8682C23.7534 15.1246 23.7534 15.1246 23.3506 15.3809C23.2618 15.4374 23.1731 15.4939 23.0816 15.5521C22.9039 15.6652 22.7261 15.7782 22.5484 15.8912C22.0807 16.1886 21.6136 16.4867 21.1472 16.7859C21.0016 16.879 21.0016 16.879 20.8531 16.9741C20.6676 17.0929 20.4822 17.2119 20.2969 17.3312C19.8752 17.6009 19.4589 17.8551 19.0049 18.0664C18.5133 17.3806 18.0564 16.6787 17.6133 15.9607C17.0138 14.9952 16.404 14.0373 15.7822 13.086C16.1317 12.6921 16.5468 12.4437 16.9907 12.1705C17.1587 12.0657 17.3267 11.9609 17.4946 11.8561C17.5823 11.8016 17.6699 11.7471 17.7602 11.6909C18.2033 11.4142 18.6437 11.133 19.0842 10.8521C19.2647 10.7373 19.4451 10.6224 19.6255 10.5076C20.0005 10.2688 20.375 10.0294 20.7493 9.7897C24.4019 7.45258 24.4019 7.45258 25.8408 8.39848Z" fill="white"/>
<path d="M14.8057 13.5742C15.2301 13.9606 15.5052 14.3749 15.7944 14.8682C15.8886 15.0256 15.983 15.1829 16.0775 15.34C16.1494 15.4597 16.1494 15.4597 16.2227 15.5818C16.4514 15.9568 16.6899 16.3252 16.9297 16.6931C16.9742 16.7614 17.0187 16.8297 17.0645 16.9001C17.1503 17.0318 17.2361 17.1634 17.3219 17.295C17.5933 17.7127 17.8596 18.1337 18.126 18.5547C17.7396 18.9791 17.3253 19.2542 16.832 19.5435C16.6742 19.6379 16.5166 19.7325 16.359 19.8273C16.2792 19.8752 16.1994 19.9232 16.1172 19.9726C15.7488 20.1971 15.3869 20.4311 15.0254 20.6665C14.9575 20.7104 14.8897 20.7542 14.8198 20.7994C14.4855 21.0159 14.154 21.2356 13.8257 21.4611C13.7322 21.5242 13.7322 21.5242 13.6369 21.5885C13.5199 21.6676 13.4037 21.7479 13.2885 21.8297C13.1314 21.9349 13.1314 21.9349 12.8525 22.0703C12.4832 21.9544 12.3469 21.7412 12.1514 21.4188C12.0646 21.2775 12.0646 21.2775 11.976 21.1333C11.9148 21.0316 11.8536 20.93 11.7905 20.8252C11.6604 20.6125 11.5302 20.3999 11.3999 20.1874C11.3004 20.0244 11.3004 20.0244 11.1989 19.8582C10.8256 19.2535 10.4383 18.6576 10.0503 18.0623C9.99642 17.9786 9.94252 17.8948 9.88699 17.8085C9.81583 17.699 9.81583 17.699 9.74323 17.5872C9.63236 17.3873 9.5756 17.2156 9.53223 16.9922C10.1799 16.5312 10.8373 16.0916 11.5098 15.6677C11.6967 15.5493 11.8836 15.431 12.0705 15.3126C12.1662 15.2521 12.2618 15.1916 12.3603 15.1293C12.8628 14.8113 13.3642 14.4918 13.8657 14.1724C14.0476 14.0566 14.2294 13.9409 14.4112 13.8252C14.5257 13.7524 14.5257 13.7524 14.6425 13.678C14.6964 13.6438 14.7502 13.6095 14.8057 13.5742Z" fill="white"/>
<path d="M17.54 5.56633C18.0874 5.99087 18.4447 6.45778 18.5506 7.15821C18.5688 7.48083 18.5472 7.78326 18.5166 8.1054C18.5092 8.18976 18.5018 8.27411 18.4941 8.36103C18.3082 10.1657 18.3082 10.1657 17.6915 10.6941C17.3477 10.934 16.9802 11.1223 16.6038 11.3057C16.1982 11.5123 15.8221 11.7645 15.4404 12.0116C15.286 12.109 15.1315 12.2061 14.9769 12.3031C14.6605 12.5028 14.3462 12.7054 14.0332 12.9104C13.9568 12.9604 13.8804 13.0103 13.8016 13.0618C13.656 13.1573 13.5107 13.2532 13.3656 13.3495C12.874 13.6718 12.874 13.6718 12.6572 13.6718C12.7885 12.8297 12.9537 11.9989 13.139 11.1671C13.1662 11.0444 13.1934 10.9217 13.2215 10.7953C13.2786 10.5381 13.336 10.2809 13.3936 10.0238C13.467 9.6956 13.5394 9.36722 13.6115 9.03878C13.6812 8.72267 13.752 8.4068 13.8226 8.0909C13.8483 7.97371 13.8739 7.85651 13.9003 7.73577C14.0769 6.95445 14.2715 6.13357 14.9689 5.64797C15.7729 5.17039 16.7113 5.08869 17.54 5.56633Z" fill="white"/>
<path d="M35.9973 19.3359C36.3341 19.4986 36.6392 19.6905 36.9559 19.889C37.2596 20.0506 37.2596 20.0506 37.572 19.9585C37.8208 19.8395 38.0528 19.7143 38.2861 19.5678C38.6781 19.3444 38.9574 19.2626 39.4153 19.3359C39.5789 19.4614 39.5789 19.4614 39.7083 19.6289C39.7417 20.0506 39.7466 20.3825 39.6224 20.7882C39.5279 21.1142 39.4747 21.3407 39.5129 21.6796C39.7499 22.0297 40.0815 22.2835 40.4121 22.541C40.6848 22.7539 40.6848 22.7539 40.7825 22.9492C40.8077 23.3448 40.8122 23.4905 40.5872 23.8281C40.3273 23.8975 40.0823 23.9501 39.8181 23.9929C39.7477 24.0055 39.6774 24.0182 39.6049 24.0312C39.2747 24.0887 38.9701 24.1211 38.634 24.1211C38.6139 24.1956 38.5938 24.2701 38.573 24.3469C38.093 25.6341 38.093 25.6341 37.5537 25.9643C37.1864 25.9799 37.07 25.9059 36.7786 25.6836C36.6362 25.452 36.519 25.2384 36.4063 24.9939C36.3758 24.9316 36.3454 24.8694 36.3141 24.8052C36.095 24.3481 36.095 24.3481 36.095 24.1211C35.9808 24.1104 35.8666 24.0997 35.749 24.0886C35.5978 24.0731 35.4466 24.0574 35.2954 24.0417C35.2203 24.0348 35.1452 24.028 35.0679 24.0209C34.6316 23.9741 34.2978 23.9187 33.9465 23.6328C33.8733 23.3215 33.8733 23.3215 33.9465 22.9492C34.2045 22.564 34.494 22.2442 34.8998 22.0169C35.1621 21.7294 35.1469 21.6561 35.1344 21.2795C35.1194 21.0851 35.1017 20.8909 35.0818 20.697C35.0634 20.5027 35.0463 20.3083 35.0307 20.1137C35.0219 20.0277 35.0132 19.9417 35.0042 19.8531C35.0208 19.6289 35.0208 19.6289 35.1466 19.4546C35.429 19.254 35.6616 19.2986 35.9973 19.3359Z" fill="white"/>
<path d="M43.8097 11.3282C44.0082 11.5906 44.0997 11.8041 44.1763 12.1247C44.2687 12.5071 44.3594 12.7653 44.5909 13.086C45.0171 13.3099 45.4838 13.3861 45.9528 13.474C46.2305 13.5317 46.3315 13.5591 46.5494 13.7509C46.6665 14.0225 46.7008 14.1606 46.6417 14.4532C46.417 14.7076 46.417 14.7076 46.1229 14.9598C45.9784 15.0857 45.9784 15.0857 45.8311 15.2142C45.5675 15.4298 45.5675 15.4298 45.2745 15.6251C45.2387 15.8267 45.2387 15.8267 45.2562 16.0577C45.2585 16.1434 45.2607 16.2291 45.2631 16.3174C45.2707 16.498 45.2783 16.6786 45.286 16.8591C45.2882 16.9451 45.2905 17.0311 45.2928 17.1197C45.2979 17.2375 45.2979 17.2375 45.3031 17.3577C45.2666 17.6388 45.1779 17.7669 44.9815 17.9688C44.5415 18.0432 44.3553 18.0076 43.9836 17.756C43.9056 17.6918 43.9056 17.6918 43.8261 17.6264C43.3376 17.2162 43.3376 17.2162 42.7347 17.1058C42.3983 17.2015 42.1019 17.3507 41.7955 17.5168C41.4515 17.6828 41.2558 17.7176 40.88 17.6759C40.66 17.5317 40.6014 17.4242 40.5153 17.1773C40.4856 16.8534 40.5661 16.6205 40.6693 16.3158C40.7866 15.9575 40.8909 15.6143 40.88 15.2345C40.6252 14.772 40.3107 14.4967 39.9034 14.1602C39.7529 13.8591 39.7767 13.6125 39.8058 13.2813C39.9822 13.0712 40.1323 12.9983 40.4025 12.9564C40.6514 12.9376 40.899 12.9277 41.1485 12.9212C41.2353 12.9179 41.322 12.9145 41.4114 12.9111C41.6249 12.9031 41.8383 12.8963 42.0519 12.8907C42.077 12.8217 42.1022 12.7527 42.1282 12.6817C42.2568 12.3797 42.4125 12.1175 42.589 11.8409C42.6484 11.7467 42.7078 11.6526 42.769 11.5556C43.0679 11.1354 43.3338 11.2113 43.8097 11.3282Z" fill="white"/>
<path d="M40.0068 0C40.3754 0.125468 40.4158 0.242354 40.5867 0.585938C40.611 0.687653 40.6353 0.789368 40.6603 0.894165C40.7528 1.27651 40.8436 1.53467 41.075 1.85547C41.5575 2.11294 42.1102 2.20164 42.6459 2.28581C42.8769 2.35742 42.9769 2.44783 43.1257 2.63672C43.1746 2.91748 43.1746 2.91748 43.1257 3.22266C42.9304 3.46069 42.9304 3.46069 42.6375 3.71094C42.5387 3.8012 42.5387 3.8012 42.4379 3.89328C41.8854 4.39453 41.8854 4.39453 41.6609 4.39453C41.6676 4.48542 41.6676 4.48542 41.6745 4.57814C41.6939 4.85254 41.711 5.12705 41.728 5.40161C41.7351 5.49697 41.7423 5.59233 41.7496 5.69057C41.7549 5.78216 41.7603 5.87374 41.7658 5.96809C41.7714 6.05248 41.777 6.13686 41.7828 6.2238C41.7585 6.44531 41.7585 6.44531 41.6231 6.61659C41.4316 6.76452 41.3169 6.81585 41.075 6.83594C40.8438 6.7524 40.8438 6.7524 40.5989 6.62231C40.513 6.57737 40.4272 6.53243 40.3387 6.48613C40.1407 6.37205 39.9629 6.25289 39.781 6.11572C39.5259 5.93426 39.5259 5.93426 39.2439 5.95703C38.9653 6.04275 38.7068 6.14393 38.4382 6.2561C38.0646 6.41006 37.7733 6.51519 37.364 6.44531C37.1693 6.31102 37.0947 6.20791 37.0028 5.99213C36.9516 5.59052 37.1121 5.21382 37.229 4.83284C37.3771 4.36319 37.3771 4.36319 37.2664 3.90625C37.0672 3.65405 37.0672 3.65405 36.8269 3.40576C36.2965 2.84016 36.2965 2.84016 36.2715 2.44751C36.2898 2.14844 36.2898 2.14844 36.4851 1.85547C36.7781 1.75781 36.7781 1.75781 37.1389 1.77498C37.9147 1.83045 37.9147 1.83045 38.5955 1.5265C38.8222 1.24429 38.985 0.940541 39.1451 0.617218C39.3697 0.193995 39.5185 0 40.0068 0Z" fill="white"/>
<path d="M7.77132 14.3714C8.07568 14.4414 8.38045 14.5094 8.68534 14.5771C8.87935 14.6209 9.07332 14.6647 9.26727 14.7087C9.35821 14.7291 9.44915 14.7494 9.54284 14.7704C9.62702 14.7899 9.71119 14.8095 9.79792 14.8296C9.8718 14.8465 9.94569 14.8634 10.0218 14.8809C10.216 14.9414 10.216 14.9414 10.509 15.1367C9.11886 16.0543 7.70967 16.9379 6.28606 17.8023C6.11701 17.9068 5.94946 18.0138 5.78429 18.1244C5.71662 18.1696 5.64895 18.2148 5.57922 18.2614C5.52268 18.3006 5.46613 18.3398 5.40787 18.3802C5.11509 18.5108 4.86449 18.4376 4.56795 18.3449C4.49821 18.3175 4.42847 18.29 4.35661 18.2617C4.29493 18.2383 4.23325 18.2149 4.16969 18.1908C3.63919 17.9407 3.36299 17.495 3.08708 16.9922C2.87655 16.3606 2.91024 15.7149 3.17864 15.1062C4.1521 13.3545 6.21038 14.0117 7.77132 14.3714Z" fill="white"/>
<path d="M38.7313 14.5507C38.829 14.6484 38.829 14.6484 38.8534 14.9779C38.829 15.3319 38.829 15.3319 38.7252 15.5212C38.3349 15.7352 37.9143 15.6426 37.503 15.525C37.3255 15.4596 37.3255 15.4596 37.1444 15.393C35.2037 14.7129 33.3187 14.7985 31.438 15.6516C29.8487 16.479 28.6616 17.8021 27.7397 19.3114C27.5985 19.5312 27.5985 19.5312 27.4032 19.7265C26.8122 19.7802 26.8122 19.7802 26.5304 19.6166C26.3764 19.3448 26.398 19.1577 26.4266 18.8476C26.542 18.6149 26.6541 18.4189 26.799 18.2067C26.8384 18.1476 26.8778 18.0885 26.9185 18.0277C28.3985 15.857 30.4328 14.1987 33.0673 13.6718C34.9572 13.3586 37.0366 13.6344 38.7313 14.5507Z" fill="white"/>
<path d="M39.708 6.83604C39.8759 6.95506 39.8759 6.95506 40.001 7.12901C40.1399 8.37522 39.3913 9.72785 38.6513 10.6774C37.8849 11.5313 36.6592 12.1857 35.5088 12.3048C35.3628 12.3239 35.3628 12.3239 35.2139 12.3433C34.0217 12.4673 32.6098 12.4272 31.5049 11.9142C31.3525 11.6729 31.3077 11.5614 31.3218 11.2733C31.4072 11.0353 31.4072 11.0353 31.5598 10.8522C31.9128 10.6892 32.2096 10.7734 32.5791 10.8399C34.0912 11.0911 35.6935 11.205 37.0103 10.2723C37.9523 9.48829 38.3901 8.54245 38.6559 7.35484C38.8412 6.80084 39.1592 6.77724 39.708 6.83604Z" fill="white"/>
<path d="M33.3488 21.0338C33.54 21.3098 33.4982 21.5531 33.4579 21.8749C33.3175 22.0702 33.3175 22.0702 33.0673 22.1679C32.6752 22.1649 32.2966 22.0904 31.9122 22.0187C30.2322 21.7684 28.6259 22.1103 27.2079 23.0468C26.7558 23.3881 26.3768 23.7329 26.0727 24.2126C25.8407 24.5116 25.8407 24.5116 25.4928 24.6276C25.1571 24.6093 25.1571 24.6093 24.9191 24.4567C24.7232 24.1512 24.7274 23.9915 24.7665 23.6327C25.8145 22.0521 27.567 21.071 29.3808 20.6725C30.4835 20.5039 32.4009 20.3357 33.3488 21.0338Z" fill="white"/>
<path d="M45.665 21.0936C46.0166 21.3406 46.175 21.5494 46.2509 21.9664C46.2764 22.3638 46.1885 22.6186 45.9579 22.9491C45.6758 23.1842 45.4995 23.2383 45.134 23.2848C44.7193 23.2339 44.5187 23.1181 44.2001 22.8515C43.9471 22.518 43.9627 22.1842 44.0048 21.7772C44.172 21.449 44.304 21.2497 44.6152 21.0509C44.9876 20.9747 45.3004 20.9817 45.665 21.0936Z" fill="white"/>
<path d="M22.6178 19.336C22.9119 19.4605 22.9899 19.5622 23.2038 19.8243C23.3377 20.2426 23.3537 20.5766 23.1855 20.9839C22.7798 21.4595 22.7798 21.4595 22.4145 21.5157C22.0242 21.5351 21.7959 21.5172 21.4521 21.3196C21.1341 20.9631 21.0504 20.7439 21.0675 20.2637C21.1607 19.891 21.2782 19.7071 21.5436 19.4336C21.8856 19.2626 22.2446 19.2828 22.6178 19.336Z" fill="white"/>
<path d="M32.3841 5.0781C32.6795 5.24763 32.9132 5.45269 33.0677 5.76169C33.1019 6.28341 33.1123 6.60621 32.7748 7.03122C32.3611 7.30697 31.9911 7.29163 31.5052 7.22654C31.2187 7.0511 31.0685 6.93903 30.9193 6.6406C30.8563 6.13213 30.8297 5.77955 31.1512 5.36496C31.5523 5.06889 31.8893 4.99364 32.3841 5.0781Z" fill="white"/>
<path d="M24.0833 24.2187C24.3788 24.3883 24.6124 24.5933 24.7669 24.9023C24.8008 25.4192 24.8171 25.7552 24.474 26.1718C24.0642 26.42 23.672 26.4372 23.2044 26.3672C22.9241 26.192 22.7658 26.0759 22.6185 25.7812C22.5555 25.2728 22.5289 24.9202 22.8504 24.5056C23.2516 24.2095 23.5885 24.1343 24.0833 24.2187Z" fill="white"/>
<path d="M47.4226 6.44527C47.7414 6.70549 47.8713 6.84814 47.957 7.24483C47.9827 7.63402 47.9433 7.92964 47.7156 8.25191C47.3554 8.55202 47.1055 8.63284 46.6413 8.5937C46.289 8.47405 46.1099 8.3661 45.8723 8.08101C45.732 7.73807 45.723 7.49672 45.7624 7.12886C45.8909 6.83126 46.0207 6.67117 46.2629 6.45747C46.6708 6.29786 47.0064 6.31204 47.4226 6.44527Z" fill="white"/>
</svg>
