<svg width="34" height="40" viewBox="0 0 34 40" fill="none" xmlns="http://www.w3.org/2000/svg">
<path d="M16.5906 0.824225C15.9757 1.08767 15.7476 1.7671 15.4664 2.32061C15.433 2.38622 15.3995 2.45182 15.3651 2.51941C15.2942 2.65845 15.2235 2.79754 15.1528 2.93667C15.0481 3.14292 14.9428 3.34897 14.8376 3.555C14.8034 3.62248 14.7691 3.68997 14.7339 3.75951C14.6636 3.89733 14.5922 4.03468 14.5199 4.17157C14.3271 4.54235 14.1688 4.90366 14.0417 5.30005C13.7718 6.13019 13.7718 6.13019 13.1347 6.70425C12.5213 6.9056 11.8843 6.95982 11.2415 7.00643C10.9821 7.02687 10.7239 7.05625 10.4654 7.08506C10.0686 7.12804 9.67176 7.16751 9.2742 7.20347C8.80982 7.24621 8.3478 7.29635 7.88625 7.3615C7.82935 7.36871 7.77246 7.37591 7.71384 7.38333C7.25565 7.45177 6.87676 7.64815 6.57952 7.99349C6.50297 8.21391 6.48477 8.37699 6.47845 8.60787C6.47557 8.67618 6.47269 8.74449 6.46972 8.81487C6.53904 9.26591 6.8884 9.5652 7.21484 9.87357C7.31788 9.97175 7.31788 9.97175 7.423 10.0719C7.59113 10.2274 7.76499 10.3745 7.94216 10.5203C8.2704 10.7953 8.57828 11.0862 8.88435 11.3835C8.93951 11.4368 8.99468 11.49 9.05152 11.5448C9.22561 11.7128 9.39944 11.881 9.57321 12.0493C9.80381 12.2726 10.0347 12.4956 10.2657 12.7185C10.345 12.7956 10.345 12.7955 10.4259 12.8741C10.4747 12.9213 10.5236 12.9684 10.574 13.017C10.6169 13.0586 10.6599 13.1002 10.7041 13.1431C10.815 13.2411 10.815 13.2411 10.969 13.315C10.9287 13.9367 10.8412 14.5429 10.7269 15.1559C10.6984 15.3091 10.6704 15.4624 10.6425 15.6157C10.5733 15.9958 10.5032 16.3757 10.4331 16.7556C10.3735 17.0786 10.3142 17.4016 10.2555 17.7247C10.2281 17.8749 10.2001 18.025 10.1721 18.1751C10.147 18.3128 10.147 18.3128 10.1214 18.4533C10.1066 18.5335 10.0918 18.6137 10.0765 18.6963C10.0061 19.2211 10.024 19.6102 10.3529 20.0408C10.5951 20.2558 10.8693 20.3561 11.1952 20.3919C11.7145 20.363 12.1613 20.084 12.6091 19.8518C12.8494 19.7287 13.0915 19.6093 13.334 19.4902C14.3033 19.0138 15.2688 18.5332 16.215 18.0151C16.2785 17.9811 16.342 17.947 16.4074 17.9119C16.4617 17.8821 16.5161 17.8524 16.572 17.8218C16.8735 17.6956 17.1019 17.6391 17.4167 17.7491C17.4884 17.788 17.5602 17.8268 17.6341 17.8668C17.7169 17.9107 17.7997 17.9545 17.885 17.9997C17.9508 18.0356 17.9508 18.0356 18.018 18.0722C18.2054 18.1745 18.3942 18.274 18.5831 18.3737C18.6839 18.4269 18.7846 18.4802 18.8852 18.5336C19.4935 18.8557 20.1115 19.1594 20.7297 19.4634C20.8384 19.517 20.947 19.5706 21.0556 19.6242C21.254 19.722 21.4525 19.8195 21.6512 19.9166C21.8018 19.9906 21.952 20.0651 22.1016 20.141C22.4956 20.339 22.7763 20.4089 23.2133 20.3365C23.545 20.2362 23.7617 20.0704 23.9448 19.7867C24.2351 19.1107 23.9476 18.2173 23.8183 17.5246C23.7897 17.3715 23.7617 17.2182 23.7339 17.0649C23.6748 16.7402 23.6149 16.4157 23.555 16.0912C23.4852 15.7129 23.4157 15.3345 23.3469 14.956C23.3194 14.8057 23.2914 14.6555 23.2634 14.5053C23.2467 14.4137 23.23 14.3221 23.2128 14.2278C23.198 14.1476 23.1832 14.0675 23.1679 13.9849C23.136 13.7568 23.1218 13.5448 23.1362 13.315C23.2611 13.1576 23.2611 13.1576 23.4461 13.0269C23.8097 12.7335 24.1479 12.4259 24.4821 12.1018C24.5329 12.0528 24.5838 12.0037 24.6361 11.9532C24.7941 11.8006 24.9519 11.6478 25.1096 11.495C25.3189 11.2921 25.5285 11.0894 25.7383 10.8869C25.7849 10.8416 25.8315 10.7962 25.8796 10.7495C26.1684 10.4707 26.4672 10.2074 26.7775 9.95081C26.9258 9.82781 27.0686 9.7009 27.208 9.5687C27.2721 9.50882 27.2721 9.50882 27.3374 9.44773C27.6278 9.12453 27.636 8.82854 27.6268 8.41414C27.5924 8.13022 27.4959 7.98014 27.2947 7.77176C26.9537 7.51958 26.6876 7.42723 26.2632 7.3691C26.2081 7.36124 26.1531 7.35339 26.0964 7.3453C25.9159 7.3198 25.7352 7.2959 25.5545 7.272C25.4283 7.25448 25.3021 7.23685 25.1759 7.21912C24.8447 7.17284 24.5132 7.12789 24.1817 7.08325C23.8447 7.03765 23.5078 6.99089 23.171 6.94417C22.7923 6.89166 22.4135 6.83925 22.0347 6.78786C21.9481 6.77608 21.9481 6.77608 21.8599 6.76407C21.7045 6.74293 21.549 6.7219 21.3936 6.70087C21.0689 6.6561 21.0689 6.6561 20.749 6.5892C20.627 6.43463 20.627 6.43463 20.5438 6.23062C20.5074 6.15223 20.471 6.07384 20.4334 5.99307C20.3946 5.90625 20.3558 5.81944 20.3158 5.73C20.229 5.54212 20.1411 5.35473 20.0532 5.1673C20.0297 5.11686 20.0062 5.06642 19.982 5.01445C19.6922 4.39474 19.3818 3.78461 19.0711 3.17433C18.9743 2.98399 18.8778 2.79347 18.7813 2.60294C18.7208 2.48379 18.6603 2.36467 18.5997 2.24555C18.5588 2.16482 18.5588 2.16482 18.5171 2.08246C18.0644 1.19579 17.7227 0.679442 16.5906 0.824225Z" fill="white"/>
<path d="M15.1228 29.4298C14.9792 29.4801 14.8356 29.5303 14.6919 29.5803C14.3922 29.6851 14.0929 29.7908 13.7937 29.8972C13.411 30.0333 13.0277 30.1675 12.6442 30.3012C12.3481 30.4045 12.0522 30.5086 11.7564 30.6128C11.6152 30.6626 11.4738 30.7122 11.3325 30.7616C11.135 30.8308 10.9378 30.9009 10.7408 30.9713C10.6828 30.9914 10.6249 31.0116 10.5652 31.0323C10.1622 31.1777 9.8122 31.3345 9.53993 31.6935C9.43802 31.9414 9.43094 32.1268 9.43242 32.3966C9.43238 32.4453 9.43235 32.4941 9.43232 32.5443C9.43247 32.7045 9.43415 32.8645 9.43586 33.0246C9.43626 33.1361 9.43657 33.2475 9.43679 33.3589C9.43762 33.6514 9.43974 33.9439 9.44215 34.2364C9.44437 34.5351 9.44536 34.8339 9.44645 35.1327C9.44877 35.7184 9.45247 36.304 9.45704 36.8896C9.39145 36.8872 9.39145 36.8872 9.32453 36.8848C9.12466 36.8785 8.92481 36.8746 8.72489 36.8707C8.65609 36.8682 8.5873 36.8656 8.51643 36.863C8.08041 36.8567 7.83641 36.8882 7.50462 37.1923C7.21131 37.5875 7.23172 37.9985 7.28769 38.4788C7.44467 38.8256 7.60766 39.0009 7.93849 39.1598C8.1826 39.1933 8.42496 39.1908 8.67085 39.1892C8.78248 39.1898 8.78248 39.1898 8.89636 39.1904C9.14606 39.1915 9.39573 39.1909 9.64543 39.1904C9.82431 39.1908 10.0032 39.1914 10.1821 39.192C10.6177 39.1932 11.0534 39.1933 11.489 39.1929C11.8431 39.1926 12.1972 39.1928 12.5513 39.1932C12.6017 39.1932 12.6521 39.1933 12.704 39.1933C12.8064 39.1934 12.9088 39.1936 13.0112 39.1937C13.9713 39.1947 14.9315 39.1943 15.8916 39.1934C16.77 39.1927 17.6483 39.1937 18.5266 39.1955C19.4286 39.1973 20.3305 39.198 21.2325 39.1975C21.7388 39.1973 22.2452 39.1975 22.7515 39.1988C23.2276 39.2 23.7036 39.1996 24.1797 39.1982C24.3545 39.1979 24.5294 39.1982 24.7042 39.199C24.9427 39.2 25.1811 39.1991 25.4195 39.1978C25.5236 39.1988 25.5236 39.1988 25.6298 39.2C26.036 39.1953 26.2743 39.1443 26.5949 38.8571C26.8883 38.4619 26.8678 38.051 26.8119 37.5707C26.6552 37.2245 26.493 37.0454 26.1611 36.8896C25.8999 36.8622 25.6414 36.8682 25.3792 36.8754C25.3084 36.8764 25.2376 36.8775 25.1647 36.8785C24.9906 36.8812 24.8166 36.8849 24.6425 36.8896C24.6432 36.828 24.6438 36.7665 24.6445 36.7031C24.6503 36.1219 24.6547 35.5407 24.6575 34.9595C24.659 34.6608 24.6611 34.362 24.6643 34.0633C24.6675 33.7747 24.6692 33.4863 24.67 33.1977C24.6705 33.0878 24.6715 32.978 24.6731 32.8681C24.6752 32.7138 24.6755 32.5595 24.6754 32.4052C24.676 32.3174 24.6766 32.2297 24.6773 32.1393C24.6329 31.8273 24.5518 31.6789 24.3533 31.4411C23.9873 31.1871 23.559 31.0477 23.1454 30.9026C23.0853 30.8811 23.0253 30.8597 22.9634 30.8376C22.7666 30.7675 22.5696 30.6981 22.3726 30.6288C22.3048 30.6048 22.237 30.5809 22.1672 30.5562C21.8086 30.4297 21.4498 30.3036 21.0909 30.1779C20.7221 30.0487 20.3539 29.9179 19.9857 29.7866C19.7008 29.6853 19.4154 29.5852 19.13 29.4855C18.9941 29.4378 18.8584 29.3896 18.7228 29.341C17.3377 28.8452 16.4975 28.9388 15.1228 29.4298ZM20.0869 33.9383C20.2836 34.2764 20.2786 34.6128 20.2315 34.9978C20.0729 35.3359 19.907 35.5206 19.5807 35.6788C19.3131 35.748 19.063 35.7644 18.7878 35.7655C18.66 35.7662 18.66 35.7662 18.5297 35.767C18.4382 35.767 18.3468 35.7671 18.2525 35.7672C18.1106 35.7676 18.1106 35.7676 17.9659 35.768C17.7659 35.7684 17.5659 35.7686 17.366 35.7685C17.1108 35.7685 16.8556 35.7696 16.6004 35.7709C16.3557 35.7719 16.111 35.7719 15.8662 35.7719C15.7295 35.7728 15.7295 35.7728 15.59 35.7736C14.8238 35.7862 14.8238 35.7862 14.1709 35.4187C13.8892 35.0734 13.8304 34.8791 13.8415 34.4358C13.8855 34.1133 14.0001 33.9262 14.2296 33.7113C14.7444 33.4267 15.3086 33.4524 15.8753 33.4568C15.9695 33.4568 16.0636 33.4567 16.1607 33.4567C16.3589 33.4567 16.5572 33.4575 16.7554 33.4588C17.0084 33.4606 17.2613 33.4606 17.5142 33.4601C17.7573 33.4598 18.0004 33.4607 18.2435 33.4615C18.3337 33.4615 18.424 33.4614 18.517 33.4613C19.3769 33.4683 19.3769 33.4683 20.0869 33.9383Z" fill="white"/>
<path d="M16.9283 20.4268C16.6983 20.5217 16.4884 20.6319 16.2717 20.7572C16.2319 20.78 16.192 20.8028 16.151 20.8264C15.9345 20.9506 15.719 21.0768 15.5037 21.2034C15.4166 21.2545 15.3294 21.3055 15.2422 21.3565C15.1784 21.3938 15.1784 21.3938 15.1132 21.4319C14.8809 21.5658 14.6497 21.6835 14.4025 21.7827C14.1323 21.8935 13.9211 22.0034 13.7122 22.2251C13.5463 22.6354 13.5469 23.0947 13.522 23.5345C13.4907 23.9567 13.4278 24.374 13.3656 24.792C13.3429 24.9441 13.321 25.0963 13.299 25.2484C13.1663 26.1514 12.9804 27.0376 12.7717 27.9243C12.739 28.0803 12.739 28.0803 12.739 28.2286C13.1484 28.1826 13.5134 28.0647 13.9021 27.9228C13.9655 27.9001 14.029 27.8773 14.0944 27.8539C14.2959 27.7816 14.4972 27.7086 14.6985 27.6356C14.9006 27.5628 15.1028 27.49 15.305 27.4174C15.4304 27.3723 15.5559 27.327 15.6812 27.2815C15.7381 27.261 15.795 27.2405 15.8535 27.2193C15.9033 27.2013 15.9531 27.1832 16.0044 27.1646C17.1193 26.7866 18.1636 27.1551 19.2217 27.5523C19.3564 27.6012 19.4912 27.6499 19.626 27.6985C19.8718 27.7873 20.1172 27.8771 20.3623 27.9683C20.4406 27.9972 20.4406 27.9972 20.5205 28.0268C20.646 28.0736 20.771 28.1215 20.896 28.1696C21.0813 28.2286 21.0813 28.2286 21.3594 28.2286C21.3433 28.1501 21.3273 28.0717 21.3108 27.9909C20.9936 26.4234 20.7239 24.8548 20.5429 23.2629C20.5324 23.1705 20.5219 23.078 20.511 22.9827C20.5019 22.9008 20.4929 22.8188 20.4835 22.7343C20.4743 22.6641 20.4651 22.5939 20.4556 22.5215C20.4493 22.4671 20.4429 22.4126 20.4363 22.3565C20.3624 22.1631 20.2567 22.1244 20.0833 22.0328C20.0192 21.9982 19.955 21.9635 19.8889 21.9278C19.8193 21.8914 19.7496 21.855 19.6779 21.8174C19.5324 21.7391 19.3871 21.6606 19.2417 21.582C19.1669 21.5418 19.092 21.5015 19.0148 21.46C18.6498 21.2607 18.2905 21.0506 17.9312 20.84C17.804 20.7656 17.6768 20.6912 17.5497 20.6168C17.4965 20.5856 17.4433 20.5543 17.3885 20.5222C17.1263 20.3699 17.1263 20.3699 16.9283 20.4268Z" fill="white"/>
<path d="M3.18003 15.3969C3.10387 15.4315 3.02772 15.4662 2.94926 15.5019C2.10949 15.8943 2.10949 15.8943 1.84275 16.3232C1.72579 16.7245 1.74661 17.1476 1.90356 17.5272C2.16552 17.83 2.37259 17.983 2.75229 18.0409C3.16269 18.031 3.53481 17.8239 3.90609 17.6483C4.0363 17.5868 4.16705 17.5269 4.29797 17.4672C5.41641 16.95 5.41641 16.95 5.65811 16.3981C5.71144 16.0307 5.69798 15.7543 5.54585 15.4198C4.82965 14.5259 4.04807 14.9867 3.18003 15.3969Z" fill="white"/>
<path d="M28.9959 15.0623C28.7187 15.2681 28.4565 15.5309 28.4161 15.8593C28.4026 16.2746 28.4239 16.5283 28.7556 16.8459C29.2734 17.1954 29.8807 17.4005 30.4777 17.6172C30.6201 17.6709 30.6201 17.6709 30.7653 17.7258C31.7888 18.0992 31.7888 18.0992 32.3738 17.9399C32.704 17.7609 32.9166 17.5959 33.081 17.2739C33.1415 16.9011 33.1335 16.5945 32.9608 16.2484C32.4535 15.774 31.7718 15.563 31.0985 15.3299C31.0086 15.2981 30.9186 15.2662 30.826 15.2334C29.6815 14.8316 29.6815 14.8316 28.9959 15.0623Z" fill="white"/>
<path d="M2.38573 4.03617C2.11072 4.21582 1.93358 4.38135 1.79668 4.70443C1.74628 5.07844 1.75291 5.38614 1.89677 5.73339C2.31572 6.20529 2.88021 6.42044 3.43559 6.65497C3.50883 6.68689 3.58207 6.71882 3.65753 6.75171C4.4832 7.10409 4.4832 7.10409 4.97025 7.03076C5.29764 6.8775 5.50722 6.62131 5.66668 6.27918C5.70213 5.93256 5.70174 5.64644 5.56659 5.32628C5.13837 4.83244 4.53645 4.60968 3.96522 4.35996C3.88617 4.32402 3.80713 4.28808 3.72569 4.25105C2.87308 3.87632 2.87308 3.87632 2.38573 4.03617Z" fill="white"/>
<path d="M30.5556 4.28266C30.3989 4.34386 30.2416 4.40342 30.084 4.46276C28.7382 4.9772 28.7382 4.9772 28.4474 5.52615C28.3832 5.89154 28.3994 6.16644 28.5825 6.49917C28.8864 6.81275 29.1297 7.03786 29.6119 7.06951C30.0146 7.03746 30.38 6.89428 30.7514 6.7561C30.8798 6.70838 31.0087 6.66158 31.1378 6.61536C31.3641 6.5342 31.5894 6.45105 31.8145 6.36731C31.9231 6.32815 31.9231 6.32815 32.0339 6.2882C32.5337 6.09722 32.8417 5.90534 33.0903 5.4534C33.1318 5.07497 33.14 4.75242 32.9652 4.40308C32.2061 3.67783 31.4747 3.92332 30.5556 4.28266Z" fill="white"/>
<path d="M3.44142 10.2114C3.37113 10.211 3.30084 10.2106 3.22842 10.2102C3.08009 10.2097 2.93176 10.2098 2.78344 10.2105C2.55716 10.2111 2.33103 10.2089 2.10477 10.2065C1.96033 10.2064 1.8159 10.2065 1.67147 10.2067C1.60418 10.2058 1.53689 10.205 1.46756 10.2041C1.04537 10.2088 0.802478 10.2707 0.467889 10.547C0.154888 10.9423 0.176673 11.3534 0.236397 11.8338C0.404062 12.181 0.578781 12.3539 0.930875 12.515C1.17439 12.5487 1.41559 12.5486 1.66122 12.5478C1.73151 12.5482 1.8018 12.5486 1.87423 12.549C2.02255 12.5495 2.17088 12.5494 2.31921 12.5488C2.54549 12.5481 2.77162 12.5503 2.99788 12.5527C3.14231 12.5528 3.28674 12.5528 3.43118 12.5525C3.49847 12.5534 3.56576 12.5542 3.63509 12.5551C4.05728 12.5504 4.30017 12.4885 4.63476 12.2122C4.94776 11.8169 4.92597 11.4058 4.86625 10.9255C4.55467 10.2802 4.10711 10.2092 3.44142 10.2114Z" fill="white"/>
<path d="M32.4375 10.2114C32.3672 10.211 32.2969 10.2106 32.2245 10.2102C32.0762 10.2097 31.9279 10.2098 31.7795 10.2105C31.5533 10.2111 31.3271 10.2089 31.1009 10.2065C30.9564 10.2064 30.812 10.2065 30.6676 10.2067C30.6003 10.2058 30.533 10.205 30.4637 10.2041C30.0415 10.2088 29.7986 10.2707 29.464 10.547C29.151 10.9423 29.1728 11.3534 29.2325 11.8338C29.4002 12.181 29.5749 12.3539 29.927 12.515C30.1705 12.5487 30.4117 12.5486 30.6573 12.5478C30.7276 12.5482 30.7979 12.5486 30.8703 12.549C31.0186 12.5495 31.167 12.5494 31.3153 12.5488C31.5416 12.5481 31.7677 12.5503 31.994 12.5527C32.1384 12.5528 32.2828 12.5528 32.4273 12.5525C32.4946 12.5534 32.5619 12.5542 32.6312 12.5551C33.0534 12.5504 33.2963 12.4885 33.6309 12.2122C33.9439 11.8169 33.9221 11.4058 33.8623 10.9255C33.5508 10.2802 33.1032 10.2092 32.4375 10.2114Z" fill="white"/>
</svg>
